# xmcd
#
# Track frame offsets:
#	150
#	26598
#	48415
#	69693
#	90167
#	107516
#	123397
#	143875
#	160773
#	180685
#	198397
#	213233
#	238704
#	258527
#	280626
#	305055
#
# Disc length: 4331 seconds
#
# Revision: 3
# Processed by: cddbd v1.5.2PL0 Copyright (c) Steve Scherf et al.
# Submitted via: EasyCDDAExtractor 11.5.0.1
#
DISCID=df10e910
DTITLE=Various Artist - 세상의 모든 음악 8
DYEAR=2015
DGENRE=World Music
TTITLE0=L'Orchestre National de Lyon - La Boum
TTITLE1=Flavio Venturini and Caetano Veloso - Ceu de Santo Amaro
TTITLE2=The Real Group - Friendship
TTITLE3=Fabio Concato - Ciao Ninin
TTITLE4=The Idan Raichel Project (Ft. Andreas Scholl) - In Stiller Nacht
TTITLE5=Omar Akram - Passage of the Heart
TTITLE6=Evanthia Reboutsika (Ft. Caroline Lavelle) - Alexandria
TTITLE7=Skruk - Den Tara
TTITLE8=Tomeu Estaras - Oblivion
TTITLE9=Kari Bremnes - Waltz
TTITLE10=Arild Andersen, Frode Alnaes, Stian Carstensen - Fields of Gold
TTITLE11=John Boswell - Skye Boat Song
TTITLE12=Aoife Ni Fherraigh - Danny Boy
TTITLE13=Sigvart Dagsland - Dap
TTITLE14=Paul Winter - Winter's Dream
TTITLE15=Rod McKuen - You
EXTD=저녁에. 당신에게 ...
EXTT0=Cond.Vladmir Cosma
EXTT1=산투 아마루의 하늘\n
EXTT2=
EXTT3=
EXTT4=고요한 밤에\n
EXTT5=
EXTT6=
EXTT7=눈물\n
EXTT8=
EXTT9=
EXTT10=
EXTT11=
EXTT12=
EXTT13=세례\n
EXTT14=
EXTT15=
PLAYORDER=
